<svg width="24" height="24" viewBox="0 0 24 24" fill="none" xmlns="http://www.w3.org/2000/svg">
  <path d="M21 8.5L19.8 7.3C19.3 6.8 18.7 6.5 18 6.5H14C13.3 6.5 12.7 6.8 12.2 7.3L11 8.5L9.8 7.3C9.3 6.8 8.7 6.5 8 6.5H4C3.3 6.5 2.7 6.8 2.2 7.3L1 8.5V15.5C1 16.6 1.9 17.5 3 17.5H9C10.1 17.5 11 16.6 11 15.5V10.5H13V15.5C13 16.6 13.9 17.5 15 17.5H21C22.1 17.5 23 16.6 23 15.5V8.5H21ZM9 15.5H3V9.5L3.8 8.7C3.9 8.6 4 8.5 4.2 8.5H8C8.2 8.5 8.3 8.6 8.4 8.7L9.2 9.5V15.5ZM21 15.5H15V9.5L15.8 8.7C15.9 8.6 16 8.5 16.2 8.5H20C20.2 8.5 20.3 8.6 20.4 8.7L21.2 9.5V15.5H21Z" fill="#B59410"/>
</svg> 